# xmcd
#
# Track frame offsets: 
#        150
#        17287
#        26685
#        35855
#        45427
#        63612
#        76257
#        90152
#        98087
#        111487
#
# Disc length: 1665 seconds
#
# Revision: 10
# Processed by: cddbd v1.5.2PL0 Copyright (c) Steve Scherf et al.
# Submitted via: ExactAudioCopy v1.1
#
DISCID=71067f0a
DTITLE=Johnny Cash - A Boy Named Sue And Other Story Songs
DYEAR=2002
DGENRE=Country
TTITLE0=A Boy Named Sue
TTITLE1=Everybody Loves A Nut
TTITLE2=Flushed From The Bathroom Of Your Heart
TTITLE3=Smiling Bill McCall
TTITLE4=One Piece At A Time
TTITLE5=The One On The Right Is On The Left
TTITLE6=Oney
TTITLE7=Boa Constrictor
TTITLE8=Look At Them Beans
TTITLE9=The Chicken In Black
EXTD=YEAR: 2002
EXTT0=
EXTT1=
EXTT2=
EXTT3=
EXTT4=
EXTT5=
EXTT6=
EXTT7=
EXTT8=
EXTT9=
PLAYORDER=
